<?xml version="1.0" encoding="utf-8"?>
<!-- Generator: Adobe Illustrator 22.1.0, SVG Export Plug-In . SVG Version: 6.00 Build 0)  -->
<svg version="1.1" id="Livello_1" xmlns="http://www.w3.org/2000/svg" xmlns:xlink="http://www.w3.org/1999/xlink" x="0px" y="0px"
	 viewBox="0 0 214 216" style="enable-background:new 0 0 214 216;" xml:space="preserve">
<style type="text/css">
	.st0{fill:#DF00E2;}
	.st1{fill:#FFFFFF;}
	.st2{fill:#F7F7F5;}
	.st3{fill:#231F20;}
	.st4{opacity:0.86;fill:#420A63;}
	.st5{fill:#3A075B;}
</style>
<title>L1</title>
<circle cx="108" cy="110.7" r="94"/>
<circle class="st0" cx="108" cy="110.7" r="94.4"/>
<path class="st1" d="M39.7,52.9c14.4-17,34.7-27.9,56.8-30.5c-44.5,7.9-77,46.4-77.5,91.6C17.9,91.7,25.3,69.9,39.7,52.9L39.7,52.9z
	 M75.1,82.8L75.1,82.8c-10.4,12.3-13.2,29.4-9.3,47.5c-2.9-17.5,0.4-34,10.8-46.2s26.1-18.2,43.8-18.3
	C101.8,64.9,85.5,70.5,75.1,82.8z M70,78.5L70,78.5C58.6,92,55,110,58.3,128.9c-2.2-18.3,1.9-35.8,13.2-49.1s27.8-20.3,46.3-21.2
	C98.6,58.5,81.4,65.1,70,78.5z M65,74.3L65,74.3c-12,14.2-16.2,32.9-13.3,52.3c-1.8-18.8,3-37,14.9-51s29-21.7,47.9-23.1
	C94.8,52.9,77,60.1,65,74.3L65,74.3z M59.9,70L59.9,70c-12.5,14.8-17.2,34.1-14.8,54c-1.4-19.3,3.9-38,16.3-52.8s30.1-23,49.3-24.8
	C90.7,47.3,72.4,55.1,59.9,70L59.9,70z M54.8,65.7L54.8,65.7c-13.2,15.6-18.4,35.6-16.4,55.9c-1-19.8,4.8-39.3,17.9-54.7
	s31.2-24.3,50.9-26.7C86.8,41.7,68,50.1,54.8,65.7L54.8,65.7z M49.8,61.4L49.8,61.4c-13.8,16.3-19.6,37-18,57.9
	c-1.6-42.8,29.6-79.7,72.1-85.2C83,36,63.6,45.1,49.8,61.4L49.8,61.4z M44.7,57.2L44.7,57.2c-14.3,17-20.6,38.2-19.4,59.5
	c-0.5-44.1,31.4-81.8,74.9-88.6C79,30.5,59,40.2,44.7,57.2L44.7,57.2z"/>
<circle class="st2" cx="108" cy="110.7" r="32.5"/>
<path class="st3" d="M111.3,111.2c0.3-1.8-1-3.5-2.8-3.8c-1.8-0.3-3.5,1-3.8,2.8c-0.3,1.8,1,3.5,2.8,3.8c0,0,0,0,0,0
	C109.3,114.3,111,113,111.3,111.2z"/>
<path class="st0" d="M154.5,192.7c-12,6.2-24.9,10.3-38.3,12C129.7,203.5,142.8,199.4,154.5,192.7z"/>
<path class="st0" d="M197.9,82.1c2.7,9.4,4.1,19.2,4.1,29.1c0,5.8-0.4,11.5-1.3,17.2c0.2-1,0.4-2.1,0.6-3.2
	C203.5,110.7,202.4,96,197.9,82.1z"/>
<path class="st4" d="M197.9,82.1c-8.7-27.5-29.5-49.5-56.4-59.7c-2.8-0.9-5.6-1.7-8.5-2.4c16.3,7.6,24.4,24.1,24.4,43.3
	c0,24.8-18.6,47.4-42.2,47.4c-1.1,0-2.2,0-3.2,0.1c-25.1,1.9-44.6,22.8-44.6,48c0,20.8,13.4,39.3,32,45.8c5.6,0.5,11.2,0.5,16.8,0
	c11.8-0.7,23.8-3.7,38.3-11.9c24.1-13.6,41-37.2,46.2-64.4C201.5,123,205,103,197.9,82.1z"/>
<g>
	<path class="st5" d="M122.3,164.3c0.2,7.1-5.4,13.1-12.5,13.3s-13.1-5.4-13.3-12.5c-0.2-7.1,5.4-13.1,12.5-13.3c0.3,0,0.6,0,0.8,0
		C116.6,152,122,157.5,122.3,164.3z"/>
</g>
</svg>
